<?xml version="1.0" encoding="UTF-8" standalone="no"?>
<!-- Created with Inkscape (http://www.inkscape.org/) -->

<svg
   xmlns:dc="http://purl.org/dc/elements/1.1/"
   xmlns:cc="http://creativecommons.org/ns#"
   xmlns:rdf="http://www.w3.org/1999/02/22-rdf-syntax-ns#"
   xmlns:svg="http://www.w3.org/2000/svg"
   xmlns="http://www.w3.org/2000/svg"
   xmlns:xlink="http://www.w3.org/1999/xlink"
   xmlns:sodipodi="http://sodipodi.sourceforge.net/DTD/sodipodi-0.dtd"
   xmlns:inkscape="http://www.inkscape.org/namespaces/inkscape"
   width="800"
   height="800"
   id="svg2"
   version="1.1"
   inkscape:version="0.48.0 r9654"
   sodipodi:docname="hdd.svg">
  <defs
     id="defs4">
    <pattern
       inkscape:collect="always"
       xlink:href="#pattern5512"
       id="pattern5515"
       patternTransform="translate(957.85617,84.926387)" />
    <pattern
       inkscape:collect="always"
       xlink:href="#pattern4788"
       id="pattern5512"
       patternTransform="translate(958,100.36218)" />
    <inkscape:perspective
       sodipodi:type="inkscape:persp3d"
       inkscape:vp_x="0 : 526.18109 : 1"
       inkscape:vp_y="0 : 1000 : 0"
       inkscape:vp_z="744.09448 : 526.18109 : 1"
       inkscape:persp3d-origin="372.04724 : 350.78739 : 1"
       id="perspective10" />
    <inkscape:perspective
       id="perspective6027"
       inkscape:persp3d-origin="0.5 : 0.33333333 : 1"
       inkscape:vp_z="1 : 0.5 : 1"
       inkscape:vp_y="0 : 1000 : 0"
       inkscape:vp_x="0 : 0.5 : 1"
       sodipodi:type="inkscape:persp3d" />
    <inkscape:perspective
       id="perspective6049"
       inkscape:persp3d-origin="0.5 : 0.33333333 : 1"
       inkscape:vp_z="1 : 0.5 : 1"
       inkscape:vp_y="0 : 1000 : 0"
       inkscape:vp_x="0 : 0.5 : 1"
       sodipodi:type="inkscape:persp3d" />
    <inkscape:perspective
       id="perspective6049-9"
       inkscape:persp3d-origin="0.5 : 0.33333333 : 1"
       inkscape:vp_z="1 : 0.5 : 1"
       inkscape:vp_y="0 : 1000 : 0"
       inkscape:vp_x="0 : 0.5 : 1"
       sodipodi:type="inkscape:persp3d" />
    <inkscape:perspective
       id="perspective6049-3"
       inkscape:persp3d-origin="0.5 : 0.33333333 : 1"
       inkscape:vp_z="1 : 0.5 : 1"
       inkscape:vp_y="0 : 1000 : 0"
       inkscape:vp_x="0 : 0.5 : 1"
       sodipodi:type="inkscape:persp3d" />
    <inkscape:perspective
       id="perspective6089"
       inkscape:persp3d-origin="0.5 : 0.33333333 : 1"
       inkscape:vp_z="1 : 0.5 : 1"
       inkscape:vp_y="0 : 1000 : 0"
       inkscape:vp_x="0 : 0.5 : 1"
       sodipodi:type="inkscape:persp3d" />
    <inkscape:perspective
       id="perspective6203"
       inkscape:persp3d-origin="0.5 : 0.33333333 : 1"
       inkscape:vp_z="1 : 0.5 : 1"
       inkscape:vp_y="0 : 1000 : 0"
       inkscape:vp_x="0 : 0.5 : 1"
       sodipodi:type="inkscape:persp3d" />
    <inkscape:perspective
       id="perspective3694"
       inkscape:persp3d-origin="0.5 : 0.33333333 : 1"
       inkscape:vp_z="1 : 0.5 : 1"
       inkscape:vp_y="0 : 1000 : 0"
       inkscape:vp_x="0 : 0.5 : 1"
       sodipodi:type="inkscape:persp3d" />
    <inkscape:perspective
       id="perspective4774"
       inkscape:persp3d-origin="0.5 : 0.33333333 : 1"
       inkscape:vp_z="1 : 0.5 : 1"
       inkscape:vp_y="0 : 1000 : 0"
       inkscape:vp_x="0 : 0.5 : 1"
       sodipodi:type="inkscape:persp3d" />
    <pattern
       patternUnits="userSpaceOnUse"
       width="16"
       height="16"
       patternTransform="translate(958,100.36218)"
       id="pattern4788">
      <path
         transform="translate(-324.5,-303.86218)"
         d="m 339,311.86218 a 6.5,6.5 0 1 1 -13,0 6.5,6.5 0 1 1 13,0 z"
         sodipodi:ry="6.5"
         sodipodi:rx="6.5"
         sodipodi:cy="311.86218"
         sodipodi:cx="332.5"
         id="path6017-9"
         style="fill:#fff8f8;fill-opacity:1;fill-rule:nonzero;stroke:#000000;stroke-width:3;stroke-linecap:round;stroke-linejoin:miter;stroke-miterlimit:4;stroke-opacity:1;stroke-dasharray:none;stroke-dashoffset:0"
         sodipodi:type="arc" />
    </pattern>
    <pattern
       patternTransform="translate(926.85617,115.92638)"
       id="pattern5542"
       xlink:href="#pattern5515-6"
       inkscape:collect="always" />
    <inkscape:perspective
       id="perspective5533"
       inkscape:persp3d-origin="0.5 : 0.33333333 : 1"
       inkscape:vp_z="1 : 0.5 : 1"
       inkscape:vp_y="0 : 1000 : 0"
       inkscape:vp_x="0 : 0.5 : 1"
       sodipodi:type="inkscape:persp3d" />
    <pattern
       inkscape:collect="always"
       xlink:href="#pattern5512-5"
       id="pattern5515-6"
       patternTransform="translate(928.30152,69.249482)" />
    <pattern
       inkscape:collect="always"
       xlink:href="#pattern4788-2"
       id="pattern5512-5"
       patternTransform="translate(958,100.36218)" />
    <pattern
       patternUnits="userSpaceOnUse"
       width="16"
       height="16"
       patternTransform="translate(958,100.36218)"
       id="pattern4788-2">
      <path
         transform="translate(-324.5,-303.86218)"
         d="m 339,311.86218 a 6.5,6.5 0 1 1 -13,0 6.5,6.5 0 1 1 13,0 z"
         sodipodi:ry="6.5"
         sodipodi:rx="6.5"
         sodipodi:cy="311.86218"
         sodipodi:cx="332.5"
         id="path6017-9-6"
         style="fill:#fff8f8;fill-opacity:1;fill-rule:nonzero;stroke:#000000;stroke-width:3;stroke-linecap:round;stroke-linejoin:miter;stroke-miterlimit:4;stroke-opacity:1;stroke-dasharray:none;stroke-dashoffset:0"
         sodipodi:type="arc" />
    </pattern>
    <pattern
       patternTransform="translate(926.85617,84.926385)"
       id="pattern5542-8"
       xlink:href="#pattern5515-9"
       inkscape:collect="always" />
    <inkscape:perspective
       id="perspective5533-7"
       inkscape:persp3d-origin="0.5 : 0.33333333 : 1"
       inkscape:vp_z="1 : 0.5 : 1"
       inkscape:vp_y="0 : 1000 : 0"
       inkscape:vp_x="0 : 0.5 : 1"
       sodipodi:type="inkscape:persp3d" />
    <pattern
       inkscape:collect="always"
       xlink:href="#pattern5512-6"
       id="pattern5515-9"
       patternTransform="translate(928.30152,69.249482)" />
    <pattern
       inkscape:collect="always"
       xlink:href="#pattern4788-0"
       id="pattern5512-6"
       patternTransform="translate(958,100.36218)" />
    <pattern
       patternUnits="userSpaceOnUse"
       width="16"
       height="16"
       patternTransform="translate(958,100.36218)"
       id="pattern4788-0">
      <path
         transform="translate(-324.5,-303.86218)"
         d="m 339,311.86218 a 6.5,6.5 0 1 1 -13,0 6.5,6.5 0 1 1 13,0 z"
         sodipodi:ry="6.5"
         sodipodi:rx="6.5"
         sodipodi:cy="311.86218"
         sodipodi:cx="332.5"
         id="path6017-9-4"
         style="fill:#fff8f8;fill-opacity:1;fill-rule:nonzero;stroke:#000000;stroke-width:3;stroke-linecap:round;stroke-linejoin:miter;stroke-miterlimit:4;stroke-opacity:1;stroke-dasharray:none;stroke-dashoffset:0"
         sodipodi:type="arc" />
    </pattern>
    <pattern
       patternTransform="translate(957.85617,115.92639)"
       id="pattern5542-0"
       xlink:href="#pattern5515-8"
       inkscape:collect="always" />
    <inkscape:perspective
       id="perspective5533-4"
       inkscape:persp3d-origin="0.5 : 0.33333333 : 1"
       inkscape:vp_z="1 : 0.5 : 1"
       inkscape:vp_y="0 : 1000 : 0"
       inkscape:vp_x="0 : 0.5 : 1"
       sodipodi:type="inkscape:persp3d" />
    <pattern
       inkscape:collect="always"
       xlink:href="#pattern5512-7"
       id="pattern5515-8"
       patternTransform="translate(928.30152,69.249482)" />
    <pattern
       inkscape:collect="always"
       xlink:href="#pattern4788-08"
       id="pattern5512-7"
       patternTransform="translate(958,100.36218)" />
    <pattern
       patternUnits="userSpaceOnUse"
       width="16"
       height="16"
       patternTransform="translate(958,100.36218)"
       id="pattern4788-08">
      <path
         transform="translate(-324.5,-303.86218)"
         d="m 339,311.86218 a 6.5,6.5 0 1 1 -13,0 6.5,6.5 0 1 1 13,0 z"
         sodipodi:ry="6.5"
         sodipodi:rx="6.5"
         sodipodi:cy="311.86218"
         sodipodi:cx="332.5"
         id="path6017-9-62"
         style="fill:#fff8f8;fill-opacity:1;fill-rule:nonzero;stroke:#000000;stroke-width:3;stroke-linecap:round;stroke-linejoin:miter;stroke-miterlimit:4;stroke-opacity:1;stroke-dasharray:none;stroke-dashoffset:0"
         sodipodi:type="arc" />
    </pattern>
  </defs>
  <sodipodi:namedview
     id="base"
     pagecolor="#ffffff"
     bordercolor="#666666"
     borderopacity="1.0"
     inkscape:pageopacity="0.0"
     inkscape:pageshadow="2"
     inkscape:zoom="0.70710678"
     inkscape:cx="409.72481"
     inkscape:cy="399.30891"
     inkscape:document-units="px"
     inkscape:current-layer="layer1"
     showgrid="false"
     inkscape:window-width="1246"
     inkscape:window-height="778"
     inkscape:window-x="30"
     inkscape:window-y="0"
     inkscape:window-maximized="1"
     inkscape:snap-midpoints="true"
     inkscape:snap-nodes="false"
     inkscape:snap-smooth-nodes="true"
     inkscape:object-nodes="true"
     inkscape:object-paths="false"
     inkscape:snap-global="true"
     fit-margin-top="0"
     fit-margin-left="0"
     fit-margin-right="0"
     fit-margin-bottom="0" />
  <metadata
     id="metadata7">
    <rdf:RDF>
      <cc:Work
         rdf:about="">
        <dc:format>image/svg+xml</dc:format>
        <dc:type
           rdf:resource="http://purl.org/dc/dcmitype/StillImage" />
        <dc:title />
      </cc:Work>
    </rdf:RDF>
  </metadata>
  <g
     inkscape:label="Layer 1"
     inkscape:groupmode="layer"
     id="layer1"
     transform="translate(-67.5,-55.862183)">
    <rect
       style="fill:#ffffff;fill-opacity:1;stroke:#000000;stroke-width:3;stroke-linecap:round;stroke-linejoin:miter;stroke-miterlimit:4;stroke-opacity:1;stroke-dasharray:none;stroke-dashoffset:0"
       id="rect5986"
       width="586"
       height="782"
       x="172.82338"
       y="65.776398"
       ry="10.571411"
       rx="10" />
    <rect
       style="fill:#fafafa;fill-opacity:1;fill-rule:nonzero;stroke:#000000;stroke-width:3;stroke-linecap:round;stroke-linejoin:miter;stroke-miterlimit:4;stroke-opacity:1;stroke-dasharray:none;stroke-dashoffset:0"
       id="rect2830"
       width="574.28571"
       height="768.57141"
       x="178.10909"
       y="71.490685"
       ry="48.57143" />
    <path
       sodipodi:type="arc"
       style="fill:#cfcfcf;fill-opacity:1;fill-rule:nonzero;stroke:#000000;stroke-opacity:1"
       id="path3604"
       sodipodi:cx="464.28571"
       sodipodi:cy="475.21933"
       sodipodi:rx="212.85713"
       sodipodi:ry="202.85713"
       d="m 677.14284,475.21933 a 212.85713,202.85713 0 1 1 -425.71427,0 212.85713,202.85713 0 1 1 425.71427,0 z"
       transform="matrix(1.2543805,0,0,1.3021316,-119.99612,-265.87886)" />
    <path
       style="fill:#fff8f8;fill-opacity:1;fill-rule:nonzero;stroke:#000000;stroke-width:2.69361043;stroke-linecap:round;stroke-linejoin:miter;stroke-miterlimit:4;stroke-opacity:1;stroke-dasharray:none;stroke-dashoffset:0"
       id="path6013"
       d="m 472.15956,708.44022 c 9.3487,0 18.6974,-1.32766 28.0461,-1.32766 10.36232,0 20.72463,0 31.08695,0 7.5897,0 15.17939,0 22.76908,0 8.27279,0 16.54558,0 24.81837,0 5.91569,0 11.83138,0 17.74706,0 7.26178,0 14.52356,0 21.78533,0 7.8489,0 15.69781,0 23.54671,0 5.52232,0 11.04463,0 16.56695,0 8.47337,0 16.94672,0 25.42008,0 11.3529,0 22.7058,0 34.05871,0 8.39086,0 16.78173,0 25.17258,0 1.00859,0 2.01719,0 3.02578,0 1.25096,0 2.50192,0 3.75287,0 0.8129,0 1.62577,0 2.43867,0 0,0 0,1.32766 0,1.32766 l 0,0 c -0.8129,0 -1.62577,0 -2.43867,0 -1.25095,0 -2.50191,0 -3.75287,0 -1.00859,0 -2.01719,0 -3.02578,0 -8.39085,0 -16.78172,0 -25.17258,0 -11.35291,0 -22.70581,0 -34.05871,0 -8.47336,0 -16.94671,0 -25.42008,0 -5.52232,0 -11.04463,0 -16.56695,0 -7.8489,0 -15.69781,0 -23.54671,0 -7.26177,0 -14.52355,0 -21.78533,0 -5.91568,0 -11.83137,0 -17.74706,0 -8.27279,0 -16.54558,0 -24.81837,0 -7.58969,0 -15.17938,0 -22.76908,0 -10.36232,0 -20.72463,0 -31.08695,0 -9.3487,0 -18.6974,0 -28.0461,0 0,0 0,0 0,0 z"
       sodipodi:nodetypes="cssssssssssssscccssssssssssssscc"
       inkscape:connector-curvature="0" />
    <path
       sodipodi:type="arc"
       style="fill:#fff8f8;fill-opacity:1;fill-rule:nonzero;stroke:#000000;stroke-width:3;stroke-linecap:round;stroke-linejoin:miter;stroke-miterlimit:4;stroke-opacity:1;stroke-dasharray:none;stroke-dashoffset:0"
       id="path6015"
       sodipodi:cx="340"
       sodipodi:cy="325.86218"
       sodipodi:rx="51"
       sodipodi:ry="50.5"
       d="m 391,325.86218 a 51,50.5 0 1 1 -102,0 51,50.5 0 1 1 102,0 z"
       transform="matrix(1.8673976,0,0,1.8165798,-170.59182,-239.17827)" />
    <path
       sodipodi:type="arc"
       style="fill:#fff8f8;fill-opacity:1;fill-rule:nonzero;stroke:#000000;stroke-width:3;stroke-linecap:round;stroke-linejoin:miter;stroke-miterlimit:4;stroke-opacity:1;stroke-dasharray:none;stroke-dashoffset:0"
       id="path6017"
       sodipodi:cx="332.5"
       sodipodi:cy="311.86218"
       sodipodi:rx="6.5"
       sodipodi:ry="6.5"
       d="m 339,311.86218 a 6.5,6.5 0 1 1 -13,0 6.5,6.5 0 1 1 13,0 z"
       transform="translate(131.82338,-32.585786)" />
    <path
       sodipodi:type="arc"
       style="fill:#fff8f8;fill-opacity:1;fill-rule:nonzero;stroke:#000000;stroke-width:3;stroke-linecap:round;stroke-linejoin:miter;stroke-miterlimit:4;stroke-opacity:1;stroke-dasharray:none;stroke-dashoffset:0"
       id="path6017-7"
       sodipodi:cx="332.5"
       sodipodi:cy="311.86218"
       sodipodi:rx="6.5"
       sodipodi:ry="6.5"
       d="m 339,311.86218 a 6.5,6.5 0 1 1 -13,0 6.5,6.5 0 1 1 13,0 z"
       transform="translate(132.32338,112.91421)" />
    <path
       sodipodi:type="arc"
       style="fill:#fff8f8;fill-opacity:1;fill-rule:nonzero;stroke:#000000;stroke-width:3;stroke-linecap:round;stroke-linejoin:miter;stroke-miterlimit:4;stroke-opacity:1;stroke-dasharray:none;stroke-dashoffset:0"
       id="path6017-7-0"
       sodipodi:cx="332.5"
       sodipodi:cy="311.86218"
       sodipodi:rx="6.5"
       sodipodi:ry="6.5"
       d="m 339,311.86218 a 6.5,6.5 0 1 1 -13,0 6.5,6.5 0 1 1 13,0 z"
       transform="translate(196.32338,78.914214)" />
    <path
       sodipodi:type="arc"
       style="fill:#fff8f8;fill-opacity:1;fill-rule:nonzero;stroke:#000000;stroke-width:3;stroke-linecap:round;stroke-linejoin:miter;stroke-miterlimit:4;stroke-opacity:1;stroke-dasharray:none;stroke-dashoffset:0"
       id="path6017-7-2"
       sodipodi:cx="332.5"
       sodipodi:cy="311.86218"
       sodipodi:rx="6.5"
       sodipodi:ry="6.5"
       d="m 339,311.86218 a 6.5,6.5 0 1 1 -13,0 6.5,6.5 0 1 1 13,0 z"
       transform="translate(196.32338,2.914214)" />
    <path
       sodipodi:type="arc"
       style="fill:#fff8f8;fill-opacity:1;fill-rule:nonzero;stroke:#000000;stroke-width:3;stroke-linecap:round;stroke-linejoin:miter;stroke-miterlimit:4;stroke-opacity:1;stroke-dasharray:none;stroke-dashoffset:0"
       id="path6017-7-1"
       sodipodi:cx="332.5"
       sodipodi:cy="311.86218"
       sodipodi:rx="6.5"
       sodipodi:ry="6.5"
       d="m 339,311.86218 a 6.5,6.5 0 1 1 -13,0 6.5,6.5 0 1 1 13,0 z"
       transform="translate(68.32338,4.914214)" />
    <path
       sodipodi:type="arc"
       style="fill:#fff8f8;fill-opacity:1;fill-rule:nonzero;stroke:#000000;stroke-width:3;stroke-linecap:round;stroke-linejoin:miter;stroke-miterlimit:4;stroke-opacity:1;stroke-dasharray:none;stroke-dashoffset:0"
       id="path6017-7-0-8"
       sodipodi:cx="332.5"
       sodipodi:cy="311.86218"
       sodipodi:rx="6.5"
       sodipodi:ry="6.5"
       d="m 339,311.86218 a 6.5,6.5 0 1 1 -13,0 6.5,6.5 0 1 1 13,0 z"
       transform="translate(68.32338,77.914214)" />
    <path
       sodipodi:type="arc"
       style="fill:#6d6d6d;fill-opacity:1;fill-rule:nonzero;stroke:#000000;stroke-width:3;stroke-linecap:round;stroke-linejoin:miter;stroke-miterlimit:4;stroke-opacity:1;stroke-dasharray:none;stroke-dashoffset:0"
       id="path6103"
       sodipodi:cx="353"
       sodipodi:cy="348.86218"
       sodipodi:rx="29"
       sodipodi:ry="29.5"
       d="m 382,348.86218 a 29,29.5 0 1 1 -58,0 29,29.5 0 1 1 58,0 z"
       transform="matrix(1.1152209,0,0,1.0963189,70.6504,-31.187787)" />
    <path
       style="fill:none;stroke:#000000;stroke-width:3.07593226;stroke-linecap:butt;stroke-linejoin:miter;stroke-miterlimit:4;stroke-opacity:1;stroke-dasharray:none"
       d="M 472.78541,708.73842 C 397.86135,690.80676 397.86135,688.81436 397.86135,688.81436"
       id="path6221"
       inkscape:connector-curvature="0" />
    <path
       style="fill:none;stroke:#000000;stroke-width:3;stroke-linecap:butt;stroke-linejoin:miter;stroke-miterlimit:4;stroke-opacity:1;stroke-dasharray:none"
       d="m 317.82338,662.77639 -140,-76"
       id="path6223"
       inkscape:connector-curvature="0" />
    <path
       sodipodi:type="arc"
       style="fill:#6d6d6d;fill-opacity:1;fill-rule:nonzero;stroke:#000000;stroke-width:3;stroke-linecap:round;stroke-linejoin:miter;stroke-miterlimit:4;stroke-opacity:1;stroke-dasharray:none;stroke-dashoffset:0"
       id="path6103-6"
       sodipodi:cx="353"
       sodipodi:cy="348.86218"
       sodipodi:rx="29"
       sodipodi:ry="29.5"
       d="m 382,348.86218 a 29,29.5 0 1 1 -58,0 29,29.5 0 1 1 58,0 z"
       transform="matrix(0.65180703,0,0,0.64076007,234.7965,127.73946)" />
    <path
       style="fill:#6d6d6d;fill-opacity:1;stroke:#000000;stroke-width:3.6863203;stroke-linecap:butt;stroke-linejoin:miter;stroke-miterlimit:4;stroke-opacity:1;stroke-dasharray:none"
       d="M 321.79648,756.32842 C 242.56465,822.18674 145.73915,712.65489 244.39713,673.92787 660.44182,510.61446 637.44074,514.12074 637.44074,514.12074 L 321.79648,756.32842 z"
       id="path6119"
       sodipodi:nodetypes="cscc"
       inkscape:connector-curvature="0" />
  </g>
</svg>
